<svg width="50" height="50" viewBox="0 0 50 50" fill="none" xmlns="http://www.w3.org/2000/svg">
<path d="M30.8 18.6V17.4C30.8 15.9678 30.2311 14.5943 29.2184 13.5816C28.2057 12.5689 26.8322 12 25.4 12C23.9678 12 22.5943 12.5689 21.5816 13.5816C20.5689 14.5943 20 15.9678 20 17.4V18.6C20 20.0322 20.5689 21.4057 21.5816 22.4184C22.5943 23.4311 23.9678 24 25.4 24C26.8322 24 28.2057 23.4311 29.2184 22.4184C30.2311 21.4057 30.8 20.0322 30.8 18.6ZM21.2 18.6V17.4C21.2 16.2861 21.6425 15.2178 22.4302 14.4302C23.2178 13.6425 24.2861 13.2 25.4 13.2C26.5139 13.2 27.5822 13.6425 28.3698 14.4302C29.1575 15.2178 29.6 16.2861 29.6 17.4V18.6C29.6 19.7139 29.1575 20.7822 28.3698 21.5698C27.5822 22.3575 26.5139 22.8 25.4 22.8C24.2861 22.8 23.2178 22.3575 22.4302 21.5698C21.6425 20.7822 21.2 19.7139 21.2 18.6Z" fill="url(#paint0_linear_10_67)"/>
<path d="M15.1575 31.429C15.1029 31.4908 15.061 31.5628 15.0341 31.6408C15.0073 31.7188 14.9961 31.8013 15.0012 31.8836C15.0063 31.9659 15.0275 32.0465 15.0637 32.1206C15.0999 32.1947 15.1503 32.261 15.2121 32.3156C15.2739 32.3702 15.3458 32.4121 15.4238 32.439C15.5018 32.4658 15.5844 32.477 15.6667 32.4719C15.749 32.4668 15.8295 32.4456 15.9036 32.4094C15.9778 32.3732 16.044 32.3228 16.0987 32.261C17.1766 31.046 18.4917 30.0644 19.9631 29.3766C21.4345 28.6887 23.0311 28.3092 24.6546 28.2613C26.2782 28.2134 27.8943 28.4982 29.4037 29.0981C30.9131 29.698 32.2838 30.6003 33.4315 31.7496C33.5928 31.9109 33.754 32.0841 33.909 32.2572C34.0205 32.3794 34.1757 32.4527 34.3409 32.461C34.506 32.4694 34.6679 32.4122 34.7911 32.3019C34.9143 32.1915 34.989 32.037 34.9989 31.8719C35.0088 31.7068 34.9531 31.5445 34.8439 31.4202C34.6732 31.232 34.495 31.0388 34.3181 30.8618C33.0495 29.5914 31.5345 28.5939 29.8661 27.9308C28.1977 27.2676 26.4113 26.9528 24.6168 27.0057C22.8222 27.0586 21.0574 27.4781 19.431 28.2383C17.8046 28.9986 16.3509 30.0836 15.1594 31.4265L15.1575 31.429Z" fill="url(#paint1_linear_10_67)"/>
<path d="M37.3048 38.8672C37.5089 38.868 37.7052 38.7889 37.8517 38.6469C38.122 38.3836 38.3853 38.1203 38.6486 37.8484C38.7247 37.7759 38.7853 37.6887 38.8269 37.5922C38.8685 37.4956 38.8902 37.3917 38.8907 37.2865C38.8912 37.1814 38.8704 37.0772 38.8297 36.9803C38.7889 36.8834 38.729 36.7957 38.6536 36.7224C38.5782 36.6492 38.4887 36.592 38.3906 36.5541C38.2925 36.5163 38.1878 36.4986 38.0827 36.5022C37.9777 36.5058 37.8744 36.5306 37.7791 36.575C37.6838 36.6195 37.5985 36.6827 37.5282 36.7609C37.2751 37.0203 37.0228 37.2727 36.7626 37.525C36.6507 37.6335 36.5739 37.7729 36.5418 37.9254C36.5098 38.0779 36.5241 38.2364 36.5829 38.3807C36.6417 38.525 36.7423 38.6485 36.8718 38.7351C37.0012 38.8218 37.1537 38.8678 37.3095 38.8672H37.3048Z" fill="url(#paint2_linear_10_67)"/>
<path d="M39.7194 35.3305C39.8936 35.4423 40.1051 35.4805 40.3074 35.4365C40.5097 35.3926 40.6862 35.2702 40.7983 35.0961C43.287 31.2017 44.2496 26.5255 43.5016 21.9648C42.7535 17.4041 40.3474 13.2804 36.7451 10.3851C33.1427 7.48977 28.598 6.0269 23.9832 6.27724C19.3683 6.52758 15.0085 8.47348 11.7405 11.7415C8.47256 15.0094 6.52666 19.3693 6.27632 23.9841C6.02599 28.5989 7.48885 33.1437 10.3841 36.746C13.2794 40.3483 17.4032 42.7544 21.9639 43.5025C26.5245 44.2505 31.2008 43.2879 35.0952 40.7992C35.2699 40.6876 35.393 40.5111 35.4376 40.3086C35.4821 40.1061 35.4444 39.8942 35.3327 39.7196C35.221 39.5449 35.0445 39.4217 34.8421 39.3772C34.6396 39.3327 34.4277 39.3704 34.253 39.4821C30.6829 41.7621 26.3965 42.6434 22.2164 41.9569C18.0363 41.2704 14.257 39.0644 11.6037 35.7622C8.9504 32.46 7.61 28.2943 7.83975 24.0645C8.06949 19.8346 9.85319 15.8386 12.8486 12.8432C15.8439 9.84785 19.8399 8.06416 24.0698 7.83441C28.2996 7.60467 32.4653 8.94506 35.7675 11.5984C39.0697 14.2517 41.2757 18.031 41.9622 22.2111C42.6488 26.3912 41.7674 30.6776 39.4874 34.2477C39.4313 34.3339 39.3928 34.4304 39.3741 34.5316C39.3554 34.6328 39.3569 34.7367 39.3784 34.8373C39.4 34.9379 39.4412 35.0333 39.4997 35.1179C39.5583 35.2026 39.6329 35.2748 39.7194 35.3305Z" fill="url(#paint3_linear_10_67)"/>
<defs>
<linearGradient id="paint0_linear_10_67" x1="25.4" y1="42.0264" x2="25.4" y2="3.5736" gradientUnits="userSpaceOnUse">
<stop stop-color="white"/>
<stop offset="1" stop-color="white"/>
</linearGradient>
<linearGradient id="paint1_linear_10_67" x1="25.0007" y1="44.597" x2="25.0007" y2="4.38596" gradientUnits="userSpaceOnUse">
<stop stop-color="white"/>
<stop offset="1" stop-color="white"/>
</linearGradient>
<linearGradient id="paint2_linear_10_67" x1="37.6954" y1="50.0344" x2="37.6954" y2="-0.0343631" gradientUnits="userSpaceOnUse">
<stop stop-color="#FD005B"/>
<stop offset="1" stop-color="#FE0F00"/>
</linearGradient>
<linearGradient id="paint3_linear_10_67" x1="24.9999" y1="50.0344" x2="24.9999" y2="-0.0343532" gradientUnits="userSpaceOnUse">
<stop stop-color="#FD0079"/>
<stop offset="1" stop-color="#0066FE"/>
</linearGradient>
</defs>
</svg>
